<?xml version="1.0" encoding="UTF-8" standalone="no"?>
<!-- Created with Inkscape (http://www.inkscape.org/) -->

<svg
   xmlns:dc="http://purl.org/dc/elements/1.1/"
   xmlns:cc="http://creativecommons.org/ns#"
   xmlns:rdf="http://www.w3.org/1999/02/22-rdf-syntax-ns#"
   xmlns:svg="http://www.w3.org/2000/svg"
   xmlns="http://www.w3.org/2000/svg"
   xmlns:sodipodi="http://sodipodi.sourceforge.net/DTD/sodipodi-0.dtd"
   xmlns:inkscape="http://www.inkscape.org/namespaces/inkscape"
   width="744.09448819"
   height="1052.3622047"
   id="svg2"
   version="1.1"
   inkscape:version="0.48.4 r9939"
   sodipodi:docname="OpenRPSLogo.svg"
   inkscape:export-filename="C:\Xfer\OpenRPSLogo.png"
   inkscape:export-xdpi="38.594353"
   inkscape:export-ydpi="38.594353">
  <defs
     id="defs4" />
  <sodipodi:namedview
     id="base"
     pagecolor="#ffffff"
     bordercolor="#666666"
     borderopacity="1.0"
     inkscape:pageopacity="0.0"
     inkscape:pageshadow="2"
     inkscape:zoom="1"
     inkscape:cx="40.714286"
     inkscape:cy="520"
     inkscape:document-units="px"
     inkscape:current-layer="layer2"
     showgrid="false"
     inkscape:window-width="1920"
     inkscape:window-height="1005"
     inkscape:window-x="1911"
     inkscape:window-y="-9"
     inkscape:window-maximized="1" />
  <metadata
     id="metadata7">
    <rdf:RDF>
      <cc:Work
         rdf:about="">
        <dc:format>image/svg+xml</dc:format>
        <dc:type
           rdf:resource="http://purl.org/dc/dcmitype/StillImage" />
        <dc:title></dc:title>
      </cc:Work>
    </rdf:RDF>
  </metadata>
  <g
     inkscape:groupmode="layer"
     id="layer3"
     inkscape:label="icon2"
     style="display:inline" />
  <g
     inkscape:groupmode="layer"
     id="layer4"
     inkscape:label="icon3"
     style="display:inline" />
  <g
     inkscape:groupmode="layer"
     id="layer2"
     inkscape:label="icon1"
     style="display:inline">
    <path
       style="fill:#008000;stroke:#000000;stroke-width:2.85714293;stroke-opacity:1"
       d="m 133.14286,510.18891 c -6.70749,-3.53299 -7.85714,-5.93218 -7.85714,-16.39696 0,-17.78314 6.84221,-23.31897 22.88215,-18.51329 6.59911,1.97714 12.60126,5.60119 13.33811,8.05345 0.73685,2.45225 2.53562,6.69765 3.99727,9.43423 2.13516,3.99756 0.32508,6.66521 -9.20868,13.57142 -13.30905,9.64103 -12.43535,9.4957 -23.15171,3.85115 l 0,0 z"
       id="path3030"
       inkscape:connector-curvature="0" />
    <path
       style="fill:#008000;stroke:#000000;stroke-width:2.85714293;stroke-opacity:1"
       d="m 163.95051,472.64602 c -0.71648,-0.71648 -8.10202,-3.5124 -16.41232,-6.21316 -17.69376,-5.75028 -20.05294,-11.55892 -9.83306,-24.21039 6.62689,-8.20359 7.12046,-8.33122 18.7472,-4.84776 17.06067,5.11149 29.02966,16.8843 27.0039,26.56126 -1.18873,5.67854 -3.66466,7.87896 -9.89426,8.79327 -4.56982,0.6707 -8.89498,0.63326 -9.61146,-0.0832 l 0,10e-6 z"
       id="path3032"
       inkscape:connector-curvature="0" />
    <path
       style="fill:#008000;stroke:#000000;stroke-width:2.85714293;stroke-opacity:1"
       d="m 91,466.63583 c 0,-8.27158 31.39969,-32.68349 36.05329,-28.02988 2.38285,2.38284 -5.48053,16.32766 -9.20703,16.32766 -2.0158,0 -5.34514,2.36361 -7.39853,5.25247 C 106.37825,465.91133 91,471.01145 91,466.63583 z"
       id="path3034"
       inkscape:connector-curvature="0" />
    <path
       style="fill:#008000;stroke:#000000;stroke-width:2.85714293;stroke-opacity:1"
       d="m 88.12192,514.88306 c -5.126808,-12.37721 -5.091059,-31.04781 0.06585,-34.39239 7.482364,-4.85279 17.85098,-6.48095 22.54017,-3.53944 4.86191,3.04986 9.19557,28.79916 6.75316,40.12523 -1.17453,5.44663 -3.24992,6.42858 -13.58706,6.42858 -10.87858,0 -12.587812,-0.93437 -15.772123,-8.62198 z"
       id="path3036"
       inkscape:connector-curvature="0" />
    <path
       style="fill:#008000;stroke:#000000;stroke-width:2.85714293;stroke-opacity:1"
       d="m 124.59738,548.01094 c -12.84271,-4.58361 -26.12078,-12.93489 -23.97593,-15.07973 0.8502,-0.8502 8.35461,-0.6385 16.67647,0.47045 11.95447,1.59302 16.52574,3.76472 21.77653,10.34553 6.00039,7.52028 6.13914,8.31709 1.42858,8.20387 -2.86952,-0.069 -10.02707,-1.84203 -15.90565,-3.94012 z"
       id="path3038"
       inkscape:connector-curvature="0" />
    <path
       style="fill:#008000;stroke:#000000;stroke-width:2.85714293;stroke-opacity:1"
       d="m 148.84506,540.46512 c -9.83873,-9.61919 -9.65146,-14.5689 0.73016,-19.29908 3.75776,-1.71215 11.87857,-7.67202 18.04625,-13.24415 6.16768,-5.57213 12.38807,-10.13114 13.82308,-10.13114 2.94267,0 12.4126,14.97411 12.4126,19.62713 0,7.10566 -27.20296,31.80144 -35.03001,31.80144 -0.56543,0 -5.05737,-3.93939 -9.98208,-8.7542 z"
       id="path3040"
       inkscape:connector-curvature="0" />
    <path
       style="fill:#008000;stroke:#000000;stroke-width:2.85714293;stroke-opacity:1"
       d="m 193.14286,497.10013 c -5.38637,-8.2732 -6.48068,-21.1177 -2.35451,-27.63618 3.37926,-5.33852 9.68224,15.0135 8.32252,26.87302 l -0.96801,8.44292 -5,-7.67976 z"
       id="path3042"
       inkscape:connector-curvature="0" />
    <path
       sodipodi:type="arc"
       style="fill:#000080;stroke:#000000;stroke-opacity:1"
       id="path3120"
       sodipodi:cx="56"
       sodipodi:cy="487.36218"
       sodipodi:rx="10"
       sodipodi:ry="10"
       d="m 66,487.36218 a 10,10 0 1 1 -20,0 10,10 0 1 1 20,0 z"
       transform="translate(65,-19)" />
    <path
       sodipodi:type="arc"
       style="fill:#000080;stroke:#000000;stroke-opacity:1;display:inline"
       id="path3120-1"
       sodipodi:cx="56"
       sodipodi:cy="487.36218"
       sodipodi:rx="10"
       sodipodi:ry="10"
       d="m 66,487.36218 a 10,10 0 1 1 -20,0 10,10 0 1 1 20,0 z"
       transform="translate(74,36)" />
    <path
       sodipodi:type="arc"
       style="fill:#000080;stroke:#000000;stroke-opacity:1;display:inline"
       id="path3120-7"
       sodipodi:cx="56"
       sodipodi:cy="487.36218"
       sodipodi:rx="10"
       sodipodi:ry="10"
       d="m 66,487.36218 a 10,10 0 1 1 -20,0 10,10 0 1 1 20,0 z"
       transform="translate(120,-2)" />
  </g>
  <g
     inkscape:label="Layer 1"
     inkscape:groupmode="layer"
     id="layer1">
    <text
       xml:space="preserve"
       style="font-size:150px;font-style:normal;font-variant:normal;font-weight:bold;font-stretch:normal;line-height:125%;letter-spacing:0px;word-spacing:0px;fill:#000000;fill-opacity:1;stroke:none;font-family:Bauhaus 93;-inkscape-font-specification:Bauhaus 93"
       x="202.85713"
       y="526.64783"
       id="text2985"
       sodipodi:linespacing="125%"><tspan
         sodipodi:role="line"
         id="tspan2987"
         x="202.85713"
         y="526.64783"
         style="font-style:normal;font-variant:normal;font-weight:normal;font-stretch:normal;font-family:GulimChe;-inkscape-font-specification:GulimChe">penRPS</tspan></text>
  </g>
</svg>
