<?xml version="1.0" encoding="utf-8"?>
<!-- Generator: Adobe Illustrator 18.1.1, SVG Export Plug-In . SVG Version: 6.00 Build 0)  -->
<svg version="1.1" baseProfile="tiny" id="Laag_1" xmlns="http://www.w3.org/2000/svg" xmlns:xlink="http://www.w3.org/1999/xlink"
	 x="0px" y="0px" viewBox="0 0 791.3 258" xml:space="preserve">
<rect x="406.9" y="56.5" fill="#006837" width="280.3" height="129.6"/>
<g>
	<path fill="#FFFFFF" d="M501.3,107.5c0,13.5-5.9,21.9-17.6,25.4l21.3,29.6h-17.5l-19.5-27.4H450v27.4h-13.8V81.1h30.3
		c12.4,0,21.3,2.1,26.7,6.3C498.6,91.5,501.3,98.3,501.3,107.5z M483,119.1c2.8-2.4,4.2-6.3,4.2-11.6c0-5.3-1.4-9-4.3-11
		c-2.9-2-8-3-15.4-3H450v29.2h17.1C474.9,122.7,480.2,121.5,483,119.1z"/>
	<path fill="#FFFFFF" d="M576.2,88.2c5.7,4.7,8.5,12.1,8.5,21.9c0,9.9-2.9,17.1-8.7,21.7c-5.8,4.6-14.7,6.9-26.7,6.9h-14.5v23.9
		h-13.8V81.1h28C561.5,81.1,570.5,83.4,576.2,88.2z M566.5,121.8c2.8-2.9,4.1-7.2,4.1-12.8c0-5.6-1.7-9.6-5.2-12
		c-3.5-2.3-9-3.5-16.4-3.5h-14v32.7h16C558.5,126.2,563.7,124.7,566.5,121.8z"/>
	<path fill="#FFFFFF" d="M625.6,91.8c-4,0-7.3,0.8-9.9,2.4c-2.6,1.6-3.8,4.1-3.8,7.4c0,3.3,1.3,5.8,3.8,7.6c2.6,1.7,8,3.6,16.4,5.7
		c8.4,2,14.7,4.9,18.9,8.5c4.2,3.7,6.4,9,6.4,16.2c0,7.1-2.7,12.9-8,17.3c-5.4,4.4-12.4,6.6-21.1,6.6c-12.8,0-24.1-4.4-33.9-13.2
		l8.6-10.4c8.2,7.2,16.8,10.7,25.7,10.7c4.4,0,8-1,10.6-2.9c2.6-1.9,3.9-4.4,3.9-7.6c0-3.1-1.2-5.6-3.7-7.3
		c-2.5-1.7-6.7-3.3-12.7-4.8c-6-1.4-10.5-2.8-13.6-4c-3.1-1.2-5.9-2.8-8.3-4.7c-4.8-3.7-7.2-9.3-7.2-16.8c0-7.5,2.7-13.4,8.2-17.4
		s12.3-6.1,20.4-6.1c5.2,0,10.4,0.9,15.5,2.6c5.1,1.7,9.6,4.1,13.3,7.2l-7.3,10.4c-2.4-2.2-5.7-4-9.8-5.4
		C633.7,92.5,629.6,91.8,625.6,91.8z"/>
</g>
<circle fill="#006837" cx="605.9" cy="186.6" r="12.1"/>
<circle fill="#006837" cx="406.6" cy="84.6" r="12.1"/>
<circle fill="#006837" cx="684.7" cy="59.7" r="12.1"/>
<line fill="none" stroke="#006837" stroke-miterlimit="10" x1="603.6" y1="191" x2="579.3" y2="215.5"/>
<circle fill="#006837" cx="573.7" cy="221.2" r="8.1"/>
<line fill="none" stroke="#006837" stroke-miterlimit="10" x1="695.2" y1="65.8" x2="713.1" y2="77.8"/>
<circle fill="#006837" cx="715.5" cy="80.8" r="8.1"/>
<circle fill="#006837" cx="746.5" cy="60.5" r="4.1"/>
<line fill="none" stroke="#006837" stroke-miterlimit="10" x1="721.8" y1="75.7" x2="744.1" y2="62.4"/>
<circle fill="#006837" cx="369.1" cy="62.1" r="4.1"/>
<line fill="none" stroke="#006837" stroke-miterlimit="10" x1="396.6" y1="81.1" x2="370.6" y2="63.2"/>
<g>
	<path d="M88.3,160.4c-11.4,0-20.7-3.7-28.5-11.2c-7.7-7.5-11.5-16.7-11.5-27.9c0-11.3,3.7-20.4,11.5-27.9
		c7.7-7.5,17-11.2,28.5-11.2c11.4,0,20.7,3.7,28.5,11.2c7.7,7.5,11.5,16.7,11.5,27.9s-3.7,20.4-11.5,27.9
		C109.1,156.7,99.7,160.4,88.3,160.4z M88.3,88.7c-8.9,0-16.5,3.2-22.6,9.5c-6.1,6.3-9.2,14.1-9.2,23c0,9,3.1,16.7,9.2,23
		c6.1,6.3,13.7,9.5,22.6,9.5c8.9,0,16.5-3.2,22.6-9.5c6.1-6.3,9.2-14.1,9.2-23c0-9-3.1-16.7-9.2-23C104.8,91.9,97.2,88.7,88.3,88.7z
		"/>
	<path d="M151.6,159.6V84.1h25c11.6,0,20,2.2,25.1,6.4c5,4.2,7.4,10.6,7.4,19.6c0,9-2.5,15.3-7.6,19.3c-5.2,4.1-13.6,6.2-24.8,6.2
		h-17.5v23.9H151.6z M159.4,129.2h19c8.6,0,14.4-1.7,17.8-5.3c3.3-3.5,5-8.5,5-14.9c0-6.7-2.2-11.5-6.6-14.5c-4-2.7-10-4-18.1-4h-17
		V129.2z"/>
	<polygon points="231.4,159.6 231.4,84.1 282.7,84.1 282.7,91 239.2,91 239.2,118.6 278.2,118.6 278.2,124.8 239.2,124.8 
		239.2,152.6 284.1,152.6 284.1,159.6 	"/>
	<polygon points="366.1,159.6 315.5,94.3 315.5,159.6 307.7,159.6 307.7,84.1 317,84.1 368.8,150.7 368.8,84.1 376.6,84.1 
		376.6,159.6 	"/>
</g>
</svg>
